<mxfile host="65bd71144e">
    <diagram name="Página-1" id="JGs-VAMgnqPzzmGKrV1w">
        <mxGraphModel dx="579" dy="480" grid="1" gridSize="10" guides="1" tooltips="1" connect="1" arrows="1" fold="1" page="1" pageScale="1" pageWidth="827" pageHeight="1169" background="#ffffff" math="0" shadow="0">
            <root>
                <mxCell id="0"/>
                <mxCell id="1" parent="0"/>
                <mxCell id="Rd_sPL4mtn128CzlFt3K-42" value="" style="rounded=1;whiteSpace=wrap;html=1;" parent="1" vertex="1">
                    <mxGeometry x="250" y="200" width="360" height="100" as="geometry"/>
                </mxCell>
                <mxCell id="Rd_sPL4mtn128CzlFt3K-88" style="edgeStyle=orthogonalEdgeStyle;rounded=0;orthogonalLoop=1;jettySize=auto;html=1;exitX=0.5;exitY=1;exitDx=0;exitDy=0;entryX=0.5;entryY=0;entryDx=0;entryDy=0;endArrow=none;endFill=0;" parent="1" source="Rd_sPL4mtn128CzlFt3K-2" target="Rd_sPL4mtn128CzlFt3K-14" edge="1">
                    <mxGeometry relative="1" as="geometry"/>
                </mxCell>
                <mxCell id="Rd_sPL4mtn128CzlFt3K-2" value="Fornecedor" style="rounded=1;whiteSpace=wrap;html=1;" parent="1" vertex="1">
                    <mxGeometry x="150" y="90" width="100" height="50" as="geometry"/>
                </mxCell>
                <mxCell id="Rd_sPL4mtn128CzlFt3K-90" style="edgeStyle=orthogonalEdgeStyle;rounded=0;orthogonalLoop=1;jettySize=auto;html=1;exitX=1;exitY=0.5;exitDx=0;exitDy=0;entryX=0;entryY=0.5;entryDx=0;entryDy=0;endArrow=none;endFill=0;" parent="1" source="Rd_sPL4mtn128CzlFt3K-3" target="Rd_sPL4mtn128CzlFt3K-16" edge="1">
                    <mxGeometry relative="1" as="geometry"/>
                </mxCell>
                <mxCell id="Rd_sPL4mtn128CzlFt3K-3" value="Matéria Prima" style="rounded=1;whiteSpace=wrap;html=1;" parent="1" vertex="1">
                    <mxGeometry x="270" y="225" width="100" height="50" as="geometry"/>
                </mxCell>
                <mxCell id="Rd_sPL4mtn128CzlFt3K-4" value="Funcionário" style="rounded=1;whiteSpace=wrap;html=1;arcSize=11;" parent="1" vertex="1">
                    <mxGeometry x="500" y="60" width="100" height="50" as="geometry"/>
                </mxCell>
                <mxCell id="Rd_sPL4mtn128CzlFt3K-100" style="edgeStyle=orthogonalEdgeStyle;rounded=0;orthogonalLoop=1;jettySize=auto;html=1;exitX=1;exitY=0.5;exitDx=0;exitDy=0;entryX=0;entryY=0.5;entryDx=0;entryDy=0;shape=link;" parent="1" source="Rd_sPL4mtn128CzlFt3K-5" target="Rd_sPL4mtn128CzlFt3K-34" edge="1">
                    <mxGeometry relative="1" as="geometry"/>
                </mxCell>
                <mxCell id="Rd_sPL4mtn128CzlFt3K-5" value="Operário" style="rounded=1;whiteSpace=wrap;html=1;" parent="1" vertex="1">
                    <mxGeometry x="510" y="225" width="70" height="50" as="geometry"/>
                </mxCell>
                <mxCell id="Rd_sPL4mtn128CzlFt3K-6" value="Gerente" style="rounded=1;whiteSpace=wrap;html=1;" parent="1" vertex="1">
                    <mxGeometry x="693.5" y="100" width="100" height="50" as="geometry"/>
                </mxCell>
                <mxCell id="Rd_sPL4mtn128CzlFt3K-7" value="Secção" style="rounded=1;whiteSpace=wrap;html=1;" parent="1" vertex="1">
                    <mxGeometry x="710" y="230" width="100" height="50" as="geometry"/>
                </mxCell>
                <mxCell id="Rd_sPL4mtn128CzlFt3K-102" style="edgeStyle=orthogonalEdgeStyle;rounded=0;orthogonalLoop=1;jettySize=auto;html=1;exitX=1;exitY=0.5;exitDx=0;exitDy=0;entryX=0;entryY=0.5;entryDx=0;entryDy=0;endArrow=none;endFill=0;" parent="1" source="Rd_sPL4mtn128CzlFt3K-8" target="Rd_sPL4mtn128CzlFt3K-17" edge="1">
                    <mxGeometry relative="1" as="geometry"/>
                </mxCell>
                <mxCell id="Rd_sPL4mtn128CzlFt3K-110" style="edgeStyle=orthogonalEdgeStyle;rounded=0;orthogonalLoop=1;jettySize=auto;html=1;exitX=0.5;exitY=0;exitDx=0;exitDy=0;entryX=0.5;entryY=1;entryDx=0;entryDy=0;endArrow=none;endFill=0;shape=link;" parent="1" source="Rd_sPL4mtn128CzlFt3K-8" target="Rd_sPL4mtn128CzlFt3K-15" edge="1">
                    <mxGeometry relative="1" as="geometry"/>
                </mxCell>
                <mxCell id="Rd_sPL4mtn128CzlFt3K-8" value="Produto" style="rounded=1;whiteSpace=wrap;html=1;" parent="1" vertex="1">
                    <mxGeometry x="420" y="410" width="80" height="50" as="geometry"/>
                </mxCell>
                <mxCell id="Rd_sPL4mtn128CzlFt3K-108" style="edgeStyle=orthogonalEdgeStyle;rounded=0;orthogonalLoop=1;jettySize=auto;html=1;exitX=0.5;exitY=1;exitDx=0;exitDy=0;entryX=0.5;entryY=0;entryDx=0;entryDy=0;endArrow=none;endFill=0;" parent="1" source="Rd_sPL4mtn128CzlFt3K-9" target="Rd_sPL4mtn128CzlFt3K-19" edge="1">
                    <mxGeometry relative="1" as="geometry"/>
                </mxCell>
                <mxCell id="Rd_sPL4mtn128CzlFt3K-9" value="Revendedor" style="rounded=1;whiteSpace=wrap;html=1;" parent="1" vertex="1">
                    <mxGeometry x="40" y="340" width="100" height="50" as="geometry"/>
                </mxCell>
                <mxCell id="Rd_sPL4mtn128CzlFt3K-10" value="Tipo_Produto" style="rounded=1;whiteSpace=wrap;html=1;" parent="1" vertex="1">
                    <mxGeometry x="660" y="410" width="100" height="50" as="geometry"/>
                </mxCell>
                <mxCell id="Rd_sPL4mtn128CzlFt3K-106" style="edgeStyle=orthogonalEdgeStyle;rounded=0;orthogonalLoop=1;jettySize=auto;html=1;exitX=1;exitY=0.5;exitDx=0;exitDy=0;entryX=0;entryY=0.5;entryDx=0;entryDy=0;shape=link;" parent="1" source="Rd_sPL4mtn128CzlFt3K-11" target="Rd_sPL4mtn128CzlFt3K-18" edge="1">
                    <mxGeometry relative="1" as="geometry"/>
                </mxCell>
                <mxCell id="Rd_sPL4mtn128CzlFt3K-11" value="Encomenda" style="rounded=1;whiteSpace=wrap;html=1;" parent="1" vertex="1">
                    <mxGeometry x="180" y="410" width="80" height="50" as="geometry"/>
                </mxCell>
                <mxCell id="Rd_sPL4mtn128CzlFt3K-89" style="edgeStyle=orthogonalEdgeStyle;rounded=0;orthogonalLoop=1;jettySize=auto;html=1;exitX=0.5;exitY=1;exitDx=0;exitDy=0;entryX=0;entryY=0.25;entryDx=0;entryDy=0;shape=link;" parent="1" source="Rd_sPL4mtn128CzlFt3K-14" target="Rd_sPL4mtn128CzlFt3K-3" edge="1">
                    <mxGeometry relative="1" as="geometry"/>
                </mxCell>
                <mxCell id="Rd_sPL4mtn128CzlFt3K-14" value="Fornece" style="rhombus;whiteSpace=wrap;html=1;" parent="1" vertex="1">
                    <mxGeometry x="160" y="170" width="80" height="40" as="geometry"/>
                </mxCell>
                <mxCell id="Rd_sPL4mtn128CzlFt3K-112" style="edgeStyle=orthogonalEdgeStyle;rounded=0;orthogonalLoop=1;jettySize=auto;html=1;exitX=0.5;exitY=0;exitDx=0;exitDy=0;entryX=0.583;entryY=1.022;entryDx=0;entryDy=0;entryPerimeter=0;shape=link;" parent="1" source="Rd_sPL4mtn128CzlFt3K-15" target="Rd_sPL4mtn128CzlFt3K-42" edge="1">
                    <mxGeometry relative="1" as="geometry"/>
                </mxCell>
                <mxCell id="Rd_sPL4mtn128CzlFt3K-15" value="Origina" style="rhombus;whiteSpace=wrap;html=1;" parent="1" vertex="1">
                    <mxGeometry x="423.25" y="330" width="73.5" height="40" as="geometry"/>
                </mxCell>
                <mxCell id="Rd_sPL4mtn128CzlFt3K-92" style="edgeStyle=orthogonalEdgeStyle;rounded=0;orthogonalLoop=1;jettySize=auto;html=1;exitX=1;exitY=0.5;exitDx=0;exitDy=0;entryX=0;entryY=0.5;entryDx=0;entryDy=0;endArrow=none;endFill=0;" parent="1" source="Rd_sPL4mtn128CzlFt3K-16" target="Rd_sPL4mtn128CzlFt3K-5" edge="1">
                    <mxGeometry relative="1" as="geometry"/>
                </mxCell>
                <mxCell id="Rd_sPL4mtn128CzlFt3K-16" value="Processa" style="rhombus;whiteSpace=wrap;html=1;" parent="1" vertex="1">
                    <mxGeometry x="400" y="230" width="73.5" height="40" as="geometry"/>
                </mxCell>
                <mxCell id="Rd_sPL4mtn128CzlFt3K-103" style="edgeStyle=orthogonalEdgeStyle;rounded=0;orthogonalLoop=1;jettySize=auto;html=1;exitX=1;exitY=0.5;exitDx=0;exitDy=0;entryX=0;entryY=0.5;entryDx=0;entryDy=0;endArrow=none;endFill=0;" parent="1" source="Rd_sPL4mtn128CzlFt3K-17" target="Rd_sPL4mtn128CzlFt3K-10" edge="1">
                    <mxGeometry relative="1" as="geometry"/>
                </mxCell>
                <mxCell id="Rd_sPL4mtn128CzlFt3K-136" style="edgeStyle=orthogonalEdgeStyle;rounded=0;orthogonalLoop=1;jettySize=auto;html=1;exitX=0.5;exitY=0;exitDx=0;exitDy=0;entryX=0.5;entryY=1;entryDx=0;entryDy=0;endArrow=none;endFill=0;" parent="1" source="Rd_sPL4mtn128CzlFt3K-17" target="Rd_sPL4mtn128CzlFt3K-135" edge="1">
                    <mxGeometry relative="1" as="geometry"/>
                </mxCell>
                <mxCell id="Rd_sPL4mtn128CzlFt3K-17" value="Caracteriza" style="rhombus;whiteSpace=wrap;html=1;" parent="1" vertex="1">
                    <mxGeometry x="540" y="415" width="73.5" height="40" as="geometry"/>
                </mxCell>
                <mxCell id="Rd_sPL4mtn128CzlFt3K-104" style="edgeStyle=orthogonalEdgeStyle;rounded=0;orthogonalLoop=1;jettySize=auto;html=1;exitX=1;exitY=0.5;exitDx=0;exitDy=0;entryX=0;entryY=0.5;entryDx=0;entryDy=0;endArrow=none;endFill=0;" parent="1" source="Rd_sPL4mtn128CzlFt3K-18" target="Rd_sPL4mtn128CzlFt3K-8" edge="1">
                    <mxGeometry relative="1" as="geometry"/>
                </mxCell>
                <mxCell id="Rd_sPL4mtn128CzlFt3K-18" value="Contém" style="rhombus;whiteSpace=wrap;html=1;" parent="1" vertex="1">
                    <mxGeometry x="310" y="415" width="73.5" height="40" as="geometry"/>
                </mxCell>
                <mxCell id="Rd_sPL4mtn128CzlFt3K-107" style="edgeStyle=orthogonalEdgeStyle;rounded=0;orthogonalLoop=1;jettySize=auto;html=1;exitX=1;exitY=0.5;exitDx=0;exitDy=0;entryX=0;entryY=0.5;entryDx=0;entryDy=0;shape=link;" parent="1" source="Rd_sPL4mtn128CzlFt3K-19" target="Rd_sPL4mtn128CzlFt3K-11" edge="1">
                    <mxGeometry relative="1" as="geometry"/>
                </mxCell>
                <mxCell id="Rd_sPL4mtn128CzlFt3K-19" value="Adquire" style="rhombus;whiteSpace=wrap;html=1;" parent="1" vertex="1">
                    <mxGeometry x="53.25" y="415" width="73.5" height="40" as="geometry"/>
                </mxCell>
                <mxCell id="Rd_sPL4mtn128CzlFt3K-60" style="edgeStyle=orthogonalEdgeStyle;rounded=0;orthogonalLoop=1;jettySize=auto;html=1;exitX=0.5;exitY=1;exitDx=0;exitDy=0;entryX=0.75;entryY=0;entryDx=0;entryDy=0;endArrow=none;endFill=0;" parent="1" source="Rd_sPL4mtn128CzlFt3K-22" target="Rd_sPL4mtn128CzlFt3K-2" edge="1">
                    <mxGeometry relative="1" as="geometry"/>
                </mxCell>
                <mxCell id="Rd_sPL4mtn128CzlFt3K-22" value="nome" style="ellipse;whiteSpace=wrap;html=1;" parent="1" vertex="1">
                    <mxGeometry x="200" y="20" width="50" height="30" as="geometry"/>
                </mxCell>
                <mxCell id="Rd_sPL4mtn128CzlFt3K-63" style="edgeStyle=orthogonalEdgeStyle;rounded=0;orthogonalLoop=1;jettySize=auto;html=1;exitX=1;exitY=0.5;exitDx=0;exitDy=0;entryX=0;entryY=0.75;entryDx=0;entryDy=0;endArrow=none;endFill=0;" parent="1" source="Rd_sPL4mtn128CzlFt3K-23" target="Rd_sPL4mtn128CzlFt3K-2" edge="1">
                    <mxGeometry relative="1" as="geometry"/>
                </mxCell>
                <mxCell id="Rd_sPL4mtn128CzlFt3K-23" value="&lt;u&gt;nif&lt;/u&gt;" style="ellipse;whiteSpace=wrap;html=1;" parent="1" vertex="1">
                    <mxGeometry x="60" y="130" width="50" height="30" as="geometry"/>
                </mxCell>
                <mxCell id="Rd_sPL4mtn128CzlFt3K-61" style="edgeStyle=orthogonalEdgeStyle;rounded=0;orthogonalLoop=1;jettySize=auto;html=1;exitX=1;exitY=0.5;exitDx=0;exitDy=0;entryX=0;entryY=0.25;entryDx=0;entryDy=0;endArrow=none;endFill=0;" parent="1" source="Rd_sPL4mtn128CzlFt3K-24" target="Rd_sPL4mtn128CzlFt3K-2" edge="1">
                    <mxGeometry relative="1" as="geometry"/>
                </mxCell>
                <mxCell id="Rd_sPL4mtn128CzlFt3K-24" value="morada" style="ellipse;whiteSpace=wrap;html=1;" parent="1" vertex="1">
                    <mxGeometry x="40" y="80" width="70" height="30" as="geometry"/>
                </mxCell>
                <mxCell id="Rd_sPL4mtn128CzlFt3K-59" style="edgeStyle=orthogonalEdgeStyle;rounded=0;orthogonalLoop=1;jettySize=auto;html=1;exitX=1;exitY=1;exitDx=0;exitDy=0;entryX=0.25;entryY=0;entryDx=0;entryDy=0;endArrow=none;endFill=0;" parent="1" source="Rd_sPL4mtn128CzlFt3K-25" target="Rd_sPL4mtn128CzlFt3K-2" edge="1">
                    <mxGeometry relative="1" as="geometry"/>
                </mxCell>
                <mxCell id="Rd_sPL4mtn128CzlFt3K-25" value="email" style="ellipse;whiteSpace=wrap;html=1;" parent="1" vertex="1">
                    <mxGeometry x="70" y="20" width="60" height="30" as="geometry"/>
                </mxCell>
                <mxCell id="Rd_sPL4mtn128CzlFt3K-64" style="edgeStyle=orthogonalEdgeStyle;rounded=0;orthogonalLoop=1;jettySize=auto;html=1;exitX=1;exitY=1;exitDx=0;exitDy=0;entryX=0.121;entryY=-0.072;entryDx=0;entryDy=0;entryPerimeter=0;endArrow=none;endFill=0;" parent="1" source="Rd_sPL4mtn128CzlFt3K-26" target="Rd_sPL4mtn128CzlFt3K-4" edge="1">
                    <mxGeometry relative="1" as="geometry"/>
                </mxCell>
                <mxCell id="Rd_sPL4mtn128CzlFt3K-26" value="nome" style="ellipse;whiteSpace=wrap;html=1;" parent="1" vertex="1">
                    <mxGeometry x="440" y="10" width="70" height="30" as="geometry"/>
                </mxCell>
                <mxCell id="Rd_sPL4mtn128CzlFt3K-65" style="edgeStyle=orthogonalEdgeStyle;rounded=0;orthogonalLoop=1;jettySize=auto;html=1;exitX=0.5;exitY=1;exitDx=0;exitDy=0;entryX=0.65;entryY=-0.025;entryDx=0;entryDy=0;entryPerimeter=0;endArrow=none;endFill=0;" parent="1" source="Rd_sPL4mtn128CzlFt3K-27" target="Rd_sPL4mtn128CzlFt3K-4" edge="1">
                    <mxGeometry relative="1" as="geometry"/>
                </mxCell>
                <mxCell id="Rd_sPL4mtn128CzlFt3K-27" value="&lt;u&gt;id&lt;/u&gt;" style="ellipse;whiteSpace=wrap;html=1;" parent="1" vertex="1">
                    <mxGeometry x="540" y="10" width="45" height="30" as="geometry"/>
                </mxCell>
                <mxCell id="Rd_sPL4mtn128CzlFt3K-68" style="edgeStyle=orthogonalEdgeStyle;rounded=0;orthogonalLoop=1;jettySize=auto;html=1;exitX=1;exitY=0.5;exitDx=0;exitDy=0;entryX=0;entryY=0.5;entryDx=0;entryDy=0;endArrow=none;endFill=0;" parent="1" source="Rd_sPL4mtn128CzlFt3K-28" target="Rd_sPL4mtn128CzlFt3K-4" edge="1">
                    <mxGeometry relative="1" as="geometry"/>
                </mxCell>
                <mxCell id="Rd_sPL4mtn128CzlFt3K-28" value="num_CC" style="ellipse;whiteSpace=wrap;html=1;" parent="1" vertex="1">
                    <mxGeometry x="400" y="60" width="70" height="30" as="geometry"/>
                </mxCell>
                <mxCell id="Rd_sPL4mtn128CzlFt3K-69" style="edgeStyle=orthogonalEdgeStyle;rounded=0;orthogonalLoop=1;jettySize=auto;html=1;exitX=1;exitY=0;exitDx=0;exitDy=0;entryX=0;entryY=0.5;entryDx=0;entryDy=0;endArrow=none;endFill=0;" parent="1" source="Rd_sPL4mtn128CzlFt3K-29" target="Rd_sPL4mtn128CzlFt3K-4" edge="1">
                    <mxGeometry relative="1" as="geometry"/>
                </mxCell>
                <mxCell id="Rd_sPL4mtn128CzlFt3K-29" value="nif" style="ellipse;whiteSpace=wrap;html=1;" parent="1" vertex="1">
                    <mxGeometry x="414" y="100" width="50" height="30" as="geometry"/>
                </mxCell>
                <mxCell id="Rd_sPL4mtn128CzlFt3K-66" style="edgeStyle=orthogonalEdgeStyle;rounded=0;orthogonalLoop=1;jettySize=auto;html=1;exitX=0;exitY=1;exitDx=0;exitDy=0;entryX=0.897;entryY=-0.025;entryDx=0;entryDy=0;entryPerimeter=0;endArrow=none;endFill=0;" parent="1" source="Rd_sPL4mtn128CzlFt3K-30" target="Rd_sPL4mtn128CzlFt3K-4" edge="1">
                    <mxGeometry relative="1" as="geometry"/>
                </mxCell>
                <mxCell id="Rd_sPL4mtn128CzlFt3K-30" value="morada" style="ellipse;whiteSpace=wrap;html=1;" parent="1" vertex="1">
                    <mxGeometry x="610" y="10" width="70" height="30" as="geometry"/>
                </mxCell>
                <mxCell id="Rd_sPL4mtn128CzlFt3K-67" style="edgeStyle=orthogonalEdgeStyle;rounded=0;orthogonalLoop=1;jettySize=auto;html=1;exitX=0;exitY=1;exitDx=0;exitDy=0;entryX=1;entryY=0.25;entryDx=0;entryDy=0;endArrow=none;endFill=0;" parent="1" source="Rd_sPL4mtn128CzlFt3K-31" target="Rd_sPL4mtn128CzlFt3K-4" edge="1">
                    <mxGeometry relative="1" as="geometry"/>
                </mxCell>
                <mxCell id="Rd_sPL4mtn128CzlFt3K-31" value="salário" style="ellipse;whiteSpace=wrap;html=1;" parent="1" vertex="1">
                    <mxGeometry x="623.5" y="50" width="70" height="30" as="geometry"/>
                </mxCell>
                <mxCell id="Rd_sPL4mtn128CzlFt3K-99" style="edgeStyle=orthogonalEdgeStyle;rounded=0;orthogonalLoop=1;jettySize=auto;html=1;exitX=0.5;exitY=1;exitDx=0;exitDy=0;entryX=0.398;entryY=0.049;entryDx=0;entryDy=0;entryPerimeter=0;endArrow=none;endFill=0;shape=link;" parent="1" source="Rd_sPL4mtn128CzlFt3K-32" target="Rd_sPL4mtn128CzlFt3K-7" edge="1">
                    <mxGeometry relative="1" as="geometry"/>
                </mxCell>
                <mxCell id="Rd_sPL4mtn128CzlFt3K-131" style="edgeStyle=orthogonalEdgeStyle;rounded=0;orthogonalLoop=1;jettySize=auto;html=1;exitX=0.5;exitY=0;exitDx=0;exitDy=0;entryX=0.567;entryY=0.964;entryDx=0;entryDy=0;entryPerimeter=0;shape=link;" parent="1" source="Rd_sPL4mtn128CzlFt3K-32" target="Rd_sPL4mtn128CzlFt3K-6" edge="1">
                    <mxGeometry relative="1" as="geometry"/>
                </mxCell>
                <mxCell id="Rd_sPL4mtn128CzlFt3K-32" value="Coordena" style="rhombus;whiteSpace=wrap;html=1;" parent="1" vertex="1">
                    <mxGeometry x="713.25" y="170" width="73.5" height="40" as="geometry"/>
                </mxCell>
                <mxCell id="Rd_sPL4mtn128CzlFt3K-101" style="edgeStyle=orthogonalEdgeStyle;rounded=0;orthogonalLoop=1;jettySize=auto;html=1;exitX=1;exitY=0.5;exitDx=0;exitDy=0;entryX=0;entryY=0.5;entryDx=0;entryDy=0;endArrow=none;endFill=0;" parent="1" source="Rd_sPL4mtn128CzlFt3K-34" target="Rd_sPL4mtn128CzlFt3K-7" edge="1">
                    <mxGeometry relative="1" as="geometry"/>
                </mxCell>
                <mxCell id="Rd_sPL4mtn128CzlFt3K-34" value="Trabalha" style="rhombus;whiteSpace=wrap;html=1;" parent="1" vertex="1">
                    <mxGeometry x="620" y="235" width="73.5" height="40" as="geometry"/>
                </mxCell>
                <mxCell id="Rd_sPL4mtn128CzlFt3K-95" style="edgeStyle=orthogonalEdgeStyle;rounded=0;orthogonalLoop=1;jettySize=auto;html=1;exitX=1;exitY=0.5;exitDx=0;exitDy=0;endArrow=none;endFill=0;shape=link;" parent="1" source="Rd_sPL4mtn128CzlFt3K-36" target="Rd_sPL4mtn128CzlFt3K-4" edge="1">
                    <mxGeometry relative="1" as="geometry"/>
                </mxCell>
                <mxCell id="Rd_sPL4mtn128CzlFt3K-36" value="" style="triangle;whiteSpace=wrap;html=1;rotation=-90;" parent="1" vertex="1">
                    <mxGeometry x="540" y="120" width="20" height="50" as="geometry"/>
                </mxCell>
                <mxCell id="Rd_sPL4mtn128CzlFt3K-96" style="edgeStyle=orthogonalEdgeStyle;rounded=0;orthogonalLoop=1;jettySize=auto;html=1;exitX=0.5;exitY=1;exitDx=0;exitDy=0;entryX=0.563;entryY=-0.019;entryDx=0;entryDy=0;entryPerimeter=0;endArrow=none;endFill=0;" parent="1" source="Rd_sPL4mtn128CzlFt3K-38" target="Rd_sPL4mtn128CzlFt3K-5" edge="1">
                    <mxGeometry relative="1" as="geometry">
                        <Array as="points">
                            <mxPoint x="550" y="228"/>
                            <mxPoint x="549" y="228"/>
                        </Array>
                    </mxGeometry>
                </mxCell>
                <mxCell id="Rd_sPL4mtn128CzlFt3K-97" style="edgeStyle=orthogonalEdgeStyle;rounded=0;orthogonalLoop=1;jettySize=auto;html=1;exitX=1;exitY=0.5;exitDx=0;exitDy=0;entryX=0;entryY=0.5;entryDx=0;entryDy=0;endArrow=none;endFill=0;" parent="1" source="Rd_sPL4mtn128CzlFt3K-38" target="Rd_sPL4mtn128CzlFt3K-6" edge="1">
                    <mxGeometry relative="1" as="geometry"/>
                </mxCell>
                <mxCell id="Rd_sPL4mtn128CzlFt3K-38" value="is-a" style="text;strokeColor=none;align=center;fillColor=none;html=1;verticalAlign=middle;whiteSpace=wrap;rounded=0;" parent="1" vertex="1">
                    <mxGeometry x="532.5" y="130" width="35" height="30" as="geometry"/>
                </mxCell>
                <mxCell id="Rd_sPL4mtn128CzlFt3K-70" style="edgeStyle=orthogonalEdgeStyle;rounded=0;orthogonalLoop=1;jettySize=auto;html=1;exitX=0.5;exitY=0;exitDx=0;exitDy=0;entryX=0.25;entryY=1;entryDx=0;entryDy=0;endArrow=none;endFill=0;" parent="1" source="Rd_sPL4mtn128CzlFt3K-39" target="Rd_sPL4mtn128CzlFt3K-7" edge="1">
                    <mxGeometry relative="1" as="geometry"/>
                </mxCell>
                <mxCell id="Rd_sPL4mtn128CzlFt3K-39" value="&lt;u&gt;código&lt;/u&gt;" style="ellipse;whiteSpace=wrap;html=1;" parent="1" vertex="1">
                    <mxGeometry x="675" y="310" width="65" height="30" as="geometry"/>
                </mxCell>
                <mxCell id="Rd_sPL4mtn128CzlFt3K-71" style="edgeStyle=orthogonalEdgeStyle;rounded=0;orthogonalLoop=1;jettySize=auto;html=1;exitX=0.5;exitY=0;exitDx=0;exitDy=0;entryX=0.75;entryY=1;entryDx=0;entryDy=0;endArrow=none;endFill=0;" parent="1" source="Rd_sPL4mtn128CzlFt3K-40" target="Rd_sPL4mtn128CzlFt3K-7" edge="1">
                    <mxGeometry relative="1" as="geometry"/>
                </mxCell>
                <mxCell id="Rd_sPL4mtn128CzlFt3K-40" value="designação" style="ellipse;whiteSpace=wrap;html=1;" parent="1" vertex="1">
                    <mxGeometry x="750" y="310" width="70" height="30" as="geometry"/>
                </mxCell>
                <mxCell id="2" style="edgeStyle=none;html=1;exitX=1;exitY=0.5;exitDx=0;exitDy=0;entryX=0;entryY=0.5;entryDx=0;entryDy=0;endArrow=none;endFill=0;" parent="1" source="Rd_sPL4mtn128CzlFt3K-43" target="Rd_sPL4mtn128CzlFt3K-14" edge="1">
                    <mxGeometry relative="1" as="geometry"/>
                </mxCell>
                <mxCell id="Rd_sPL4mtn128CzlFt3K-43" value="&lt;font style=&quot;font-size: 9px;&quot;&gt;quantidade&lt;/font&gt;" style="ellipse;whiteSpace=wrap;html=1;" parent="1" vertex="1">
                    <mxGeometry x="56.75" y="175" width="70" height="30" as="geometry"/>
                </mxCell>
                <mxCell id="Rd_sPL4mtn128CzlFt3K-78" style="edgeStyle=orthogonalEdgeStyle;rounded=0;orthogonalLoop=1;jettySize=auto;html=1;exitX=1;exitY=0.5;exitDx=0;exitDy=0;entryX=0;entryY=0.75;entryDx=0;entryDy=0;endArrow=none;endFill=0;" parent="1" source="Rd_sPL4mtn128CzlFt3K-44" target="Rd_sPL4mtn128CzlFt3K-3" edge="1">
                    <mxGeometry relative="1" as="geometry"/>
                </mxCell>
                <mxCell id="Rd_sPL4mtn128CzlFt3K-44" value="qualidade" style="ellipse;whiteSpace=wrap;html=1;" parent="1" vertex="1">
                    <mxGeometry x="170" y="245" width="70" height="30" as="geometry"/>
                </mxCell>
                <mxCell id="Rd_sPL4mtn128CzlFt3K-79" style="edgeStyle=orthogonalEdgeStyle;rounded=0;orthogonalLoop=1;jettySize=auto;html=1;exitX=1;exitY=0.5;exitDx=0;exitDy=0;entryX=0.5;entryY=1;entryDx=0;entryDy=0;endArrow=none;endFill=0;" parent="1" source="Rd_sPL4mtn128CzlFt3K-45" target="Rd_sPL4mtn128CzlFt3K-3" edge="1">
                    <mxGeometry relative="1" as="geometry"/>
                </mxCell>
                <mxCell id="Rd_sPL4mtn128CzlFt3K-45" value="&lt;u&gt;código&lt;/u&gt;" style="ellipse;whiteSpace=wrap;html=1;" parent="1" vertex="1">
                    <mxGeometry x="170" y="280" width="70" height="30" as="geometry"/>
                </mxCell>
                <mxCell id="Rd_sPL4mtn128CzlFt3K-80" style="edgeStyle=orthogonalEdgeStyle;rounded=0;orthogonalLoop=1;jettySize=auto;html=1;exitX=0.5;exitY=1;exitDx=0;exitDy=0;entryX=0.5;entryY=0;entryDx=0;entryDy=0;endArrow=none;endFill=0;" parent="1" source="Rd_sPL4mtn128CzlFt3K-46" target="Rd_sPL4mtn128CzlFt3K-16" edge="1">
                    <mxGeometry relative="1" as="geometry"/>
                </mxCell>
                <mxCell id="Rd_sPL4mtn128CzlFt3K-46" value="estado" style="ellipse;whiteSpace=wrap;html=1;" parent="1" vertex="1">
                    <mxGeometry x="401.75" y="160" width="70" height="30" as="geometry"/>
                </mxCell>
                <mxCell id="Rd_sPL4mtn128CzlFt3K-82" style="edgeStyle=orthogonalEdgeStyle;rounded=0;orthogonalLoop=1;jettySize=auto;html=1;exitX=0.5;exitY=1;exitDx=0;exitDy=0;entryX=0;entryY=0.5;entryDx=0;entryDy=0;endArrow=none;endFill=0;" parent="1" source="Rd_sPL4mtn128CzlFt3K-47" target="Rd_sPL4mtn128CzlFt3K-9" edge="1">
                    <mxGeometry relative="1" as="geometry"/>
                </mxCell>
                <mxCell id="Rd_sPL4mtn128CzlFt3K-47" value="&lt;u&gt;nif&lt;/u&gt;" style="ellipse;whiteSpace=wrap;html=1;" parent="1" vertex="1">
                    <mxGeometry y="300" width="30" height="30" as="geometry"/>
                </mxCell>
                <mxCell id="Rd_sPL4mtn128CzlFt3K-83" style="edgeStyle=orthogonalEdgeStyle;rounded=0;orthogonalLoop=1;jettySize=auto;html=1;exitX=0.5;exitY=1;exitDx=0;exitDy=0;entryX=0.5;entryY=0;entryDx=0;entryDy=0;endArrow=none;endFill=0;" parent="1" source="Rd_sPL4mtn128CzlFt3K-49" target="Rd_sPL4mtn128CzlFt3K-9" edge="1">
                    <mxGeometry relative="1" as="geometry"/>
                </mxCell>
                <mxCell id="Rd_sPL4mtn128CzlFt3K-49" value="nome" style="ellipse;whiteSpace=wrap;html=1;" parent="1" vertex="1">
                    <mxGeometry x="53.25" y="290" width="70" height="30" as="geometry"/>
                </mxCell>
                <mxCell id="Rd_sPL4mtn128CzlFt3K-84" style="edgeStyle=orthogonalEdgeStyle;rounded=0;orthogonalLoop=1;jettySize=auto;html=1;exitX=0;exitY=0.5;exitDx=0;exitDy=0;entryX=1;entryY=0;entryDx=0;entryDy=0;endArrow=none;endFill=0;" parent="1" source="Rd_sPL4mtn128CzlFt3K-50" target="Rd_sPL4mtn128CzlFt3K-9" edge="1">
                    <mxGeometry relative="1" as="geometry"/>
                </mxCell>
                <mxCell id="Rd_sPL4mtn128CzlFt3K-50" value="morada" style="ellipse;whiteSpace=wrap;html=1;" parent="1" vertex="1">
                    <mxGeometry x="170" y="330" width="60" height="30" as="geometry"/>
                </mxCell>
                <mxCell id="Rd_sPL4mtn128CzlFt3K-85" style="edgeStyle=orthogonalEdgeStyle;rounded=0;orthogonalLoop=1;jettySize=auto;html=1;exitX=0;exitY=0.5;exitDx=0;exitDy=0;entryX=1;entryY=0.75;entryDx=0;entryDy=0;endArrow=none;endFill=0;" parent="1" source="Rd_sPL4mtn128CzlFt3K-51" target="Rd_sPL4mtn128CzlFt3K-9" edge="1">
                    <mxGeometry relative="1" as="geometry"/>
                </mxCell>
                <mxCell id="Rd_sPL4mtn128CzlFt3K-51" value="email" style="ellipse;whiteSpace=wrap;html=1;" parent="1" vertex="1">
                    <mxGeometry x="160" y="370" width="60" height="20" as="geometry"/>
                </mxCell>
                <mxCell id="Rd_sPL4mtn128CzlFt3K-86" style="edgeStyle=orthogonalEdgeStyle;rounded=0;orthogonalLoop=1;jettySize=auto;html=1;exitX=0.5;exitY=0;exitDx=0;exitDy=0;entryX=0.25;entryY=1;entryDx=0;entryDy=0;endArrow=none;endFill=0;" parent="1" source="Rd_sPL4mtn128CzlFt3K-52" target="Rd_sPL4mtn128CzlFt3K-11" edge="1">
                    <mxGeometry relative="1" as="geometry"/>
                </mxCell>
                <mxCell id="Rd_sPL4mtn128CzlFt3K-52" value="&lt;u&gt;&lt;font style=&quot;font-size: 9px;&quot;&gt;num_encomenda&lt;/font&gt;&lt;/u&gt;" style="ellipse;whiteSpace=wrap;html=1;" parent="1" vertex="1">
                    <mxGeometry x="140" y="490" width="80" height="30" as="geometry"/>
                </mxCell>
                <mxCell id="Rd_sPL4mtn128CzlFt3K-81" style="edgeStyle=orthogonalEdgeStyle;rounded=0;orthogonalLoop=1;jettySize=auto;html=1;exitX=0.5;exitY=1;exitDx=0;exitDy=0;entryX=0.5;entryY=0;entryDx=0;entryDy=0;endArrow=none;endFill=0;" parent="1" source="Rd_sPL4mtn128CzlFt3K-53" target="Rd_sPL4mtn128CzlFt3K-18" edge="1">
                    <mxGeometry relative="1" as="geometry"/>
                </mxCell>
                <mxCell id="Rd_sPL4mtn128CzlFt3K-53" value="quantidade" style="ellipse;whiteSpace=wrap;html=1;dashed=1;" parent="1" vertex="1">
                    <mxGeometry x="310" y="360" width="73.25" height="30" as="geometry"/>
                </mxCell>
                <mxCell id="Rd_sPL4mtn128CzlFt3K-87" style="edgeStyle=orthogonalEdgeStyle;rounded=0;orthogonalLoop=1;jettySize=auto;html=1;exitX=0.5;exitY=0;exitDx=0;exitDy=0;entryX=0.874;entryY=0.975;entryDx=0;entryDy=0;entryPerimeter=0;endArrow=none;endFill=0;" parent="1" source="Rd_sPL4mtn128CzlFt3K-54" target="Rd_sPL4mtn128CzlFt3K-11" edge="1">
                    <mxGeometry relative="1" as="geometry"/>
                </mxCell>
                <mxCell id="Rd_sPL4mtn128CzlFt3K-54" value="data" style="ellipse;whiteSpace=wrap;html=1;" parent="1" vertex="1">
                    <mxGeometry x="240" y="495" width="60" height="20" as="geometry"/>
                </mxCell>
                <mxCell id="Rd_sPL4mtn128CzlFt3K-76" style="edgeStyle=orthogonalEdgeStyle;rounded=0;orthogonalLoop=1;jettySize=auto;html=1;exitX=0.5;exitY=0;exitDx=0;exitDy=0;endArrow=none;endFill=0;" parent="1" source="Rd_sPL4mtn128CzlFt3K-55" target="Rd_sPL4mtn128CzlFt3K-8" edge="1">
                    <mxGeometry relative="1" as="geometry"/>
                </mxCell>
                <mxCell id="Rd_sPL4mtn128CzlFt3K-55" value="&lt;u&gt;código&lt;/u&gt;" style="ellipse;whiteSpace=wrap;html=1;" parent="1" vertex="1">
                    <mxGeometry x="430" y="490" width="60" height="20" as="geometry"/>
                </mxCell>
                <mxCell id="Rd_sPL4mtn128CzlFt3K-75" style="edgeStyle=orthogonalEdgeStyle;rounded=0;orthogonalLoop=1;jettySize=auto;html=1;exitX=0.5;exitY=0;exitDx=0;exitDy=0;entryX=0.368;entryY=0.999;entryDx=0;entryDy=0;entryPerimeter=0;endArrow=none;endFill=0;" parent="1" source="Rd_sPL4mtn128CzlFt3K-56" target="Rd_sPL4mtn128CzlFt3K-10" edge="1">
                    <mxGeometry relative="1" as="geometry"/>
                </mxCell>
                <mxCell id="Rd_sPL4mtn128CzlFt3K-56" value="custo_fabrico" style="ellipse;whiteSpace=wrap;html=1;" parent="1" vertex="1">
                    <mxGeometry x="660" y="490" width="80" height="30" as="geometry"/>
                </mxCell>
                <mxCell id="Rd_sPL4mtn128CzlFt3K-73" style="edgeStyle=orthogonalEdgeStyle;rounded=0;orthogonalLoop=1;jettySize=auto;html=1;exitX=0;exitY=0;exitDx=0;exitDy=0;entryX=1;entryY=1;entryDx=0;entryDy=0;endArrow=none;endFill=0;" parent="1" source="Rd_sPL4mtn128CzlFt3K-57" target="Rd_sPL4mtn128CzlFt3K-10" edge="1">
                    <mxGeometry relative="1" as="geometry"/>
                </mxCell>
                <mxCell id="Rd_sPL4mtn128CzlFt3K-57" value="preco_venda" style="ellipse;whiteSpace=wrap;html=1;" parent="1" vertex="1">
                    <mxGeometry x="757" y="470" width="70" height="30" as="geometry"/>
                </mxCell>
                <mxCell id="Rd_sPL4mtn128CzlFt3K-72" style="edgeStyle=orthogonalEdgeStyle;rounded=0;orthogonalLoop=1;jettySize=auto;html=1;exitX=0;exitY=0.5;exitDx=0;exitDy=0;entryX=1;entryY=0.5;entryDx=0;entryDy=0;endArrow=none;endFill=0;" parent="1" source="Rd_sPL4mtn128CzlFt3K-58" target="Rd_sPL4mtn128CzlFt3K-10" edge="1">
                    <mxGeometry relative="1" as="geometry"/>
                </mxCell>
                <mxCell id="Rd_sPL4mtn128CzlFt3K-58" value="&lt;u&gt;categoria&lt;/u&gt;" style="ellipse;whiteSpace=wrap;html=1;" parent="1" vertex="1">
                    <mxGeometry x="770" y="415" width="50" height="30" as="geometry"/>
                </mxCell>
                <mxCell id="Rd_sPL4mtn128CzlFt3K-113" value="M" style="text;strokeColor=none;align=center;fillColor=none;html=1;verticalAlign=middle;whiteSpace=wrap;rounded=0;" parent="1" vertex="1">
                    <mxGeometry x="190" y="140" width="40" height="20" as="geometry"/>
                </mxCell>
                <mxCell id="Rd_sPL4mtn128CzlFt3K-114" value="N" style="text;strokeColor=none;align=center;fillColor=none;html=1;verticalAlign=middle;whiteSpace=wrap;rounded=0;" parent="1" vertex="1">
                    <mxGeometry x="240" y="215" width="40" height="20" as="geometry"/>
                </mxCell>
                <mxCell id="Rd_sPL4mtn128CzlFt3K-116" value="N" style="text;strokeColor=none;align=center;fillColor=none;html=1;verticalAlign=middle;whiteSpace=wrap;rounded=0;" parent="1" vertex="1">
                    <mxGeometry x="150" y="410" width="40" height="20" as="geometry"/>
                </mxCell>
                <mxCell id="Rd_sPL4mtn128CzlFt3K-119" value="1" style="text;strokeColor=none;align=center;fillColor=none;html=1;verticalAlign=middle;whiteSpace=wrap;rounded=0;" parent="1" vertex="1">
                    <mxGeometry x="80" y="390" width="40" height="20" as="geometry"/>
                </mxCell>
                <mxCell id="Rd_sPL4mtn128CzlFt3K-120" value="N" style="text;strokeColor=none;align=center;fillColor=none;html=1;verticalAlign=middle;whiteSpace=wrap;rounded=0;" parent="1" vertex="1">
                    <mxGeometry x="390" y="415" width="40" height="20" as="geometry"/>
                </mxCell>
                <mxCell id="Rd_sPL4mtn128CzlFt3K-121" value="1" style="text;strokeColor=none;align=center;fillColor=none;html=1;verticalAlign=middle;whiteSpace=wrap;rounded=0;" parent="1" vertex="1">
                    <mxGeometry x="250" y="410" width="40" height="20" as="geometry"/>
                </mxCell>
                <mxCell id="Rd_sPL4mtn128CzlFt3K-122" value="1" style="text;strokeColor=none;align=center;fillColor=none;html=1;verticalAlign=middle;whiteSpace=wrap;rounded=0;" parent="1" vertex="1">
                    <mxGeometry x="456.75" y="390" width="40" height="20" as="geometry"/>
                </mxCell>
                <mxCell id="Rd_sPL4mtn128CzlFt3K-124" value="1" style="text;strokeColor=none;align=center;fillColor=none;html=1;verticalAlign=middle;whiteSpace=wrap;rounded=0;" parent="1" vertex="1">
                    <mxGeometry x="455" y="300" width="40" height="20" as="geometry"/>
                </mxCell>
                <mxCell id="Rd_sPL4mtn128CzlFt3K-126" value="1" style="text;strokeColor=none;align=center;fillColor=none;html=1;verticalAlign=middle;whiteSpace=wrap;rounded=0;" parent="1" vertex="1">
                    <mxGeometry x="620" y="415" width="40" height="20" as="geometry"/>
                </mxCell>
                <mxCell id="Rd_sPL4mtn128CzlFt3K-127" value="N" style="text;strokeColor=none;align=center;fillColor=none;html=1;verticalAlign=middle;whiteSpace=wrap;rounded=0;" parent="1" vertex="1">
                    <mxGeometry x="490" y="415" width="40" height="20" as="geometry"/>
                </mxCell>
                <mxCell id="Rd_sPL4mtn128CzlFt3K-128" value="1" style="text;strokeColor=none;align=center;fillColor=none;html=1;verticalAlign=middle;whiteSpace=wrap;rounded=0;" parent="1" vertex="1">
                    <mxGeometry x="740" y="210" width="40" height="20" as="geometry"/>
                </mxCell>
                <mxCell id="Rd_sPL4mtn128CzlFt3K-129" value="1" style="text;strokeColor=none;align=center;fillColor=none;html=1;verticalAlign=middle;whiteSpace=wrap;rounded=0;" parent="1" vertex="1">
                    <mxGeometry x="680" y="260" width="40" height="20" as="geometry"/>
                </mxCell>
                <mxCell id="Rd_sPL4mtn128CzlFt3K-130" value="N" style="text;strokeColor=none;align=center;fillColor=none;html=1;verticalAlign=middle;whiteSpace=wrap;rounded=0;" parent="1" vertex="1">
                    <mxGeometry x="580" y="255" width="20" height="20" as="geometry"/>
                </mxCell>
                <mxCell id="Rd_sPL4mtn128CzlFt3K-132" value="1" style="text;strokeColor=none;align=center;fillColor=none;html=1;verticalAlign=middle;whiteSpace=wrap;rounded=0;" parent="1" vertex="1">
                    <mxGeometry x="750" y="150" width="20" height="20" as="geometry"/>
                </mxCell>
                <mxCell id="Rd_sPL4mtn128CzlFt3K-133" value="M" style="text;strokeColor=none;align=center;fillColor=none;html=1;verticalAlign=middle;whiteSpace=wrap;rounded=0;" parent="1" vertex="1">
                    <mxGeometry x="490" y="230" width="20" height="20" as="geometry"/>
                </mxCell>
                <mxCell id="Rd_sPL4mtn128CzlFt3K-134" value="N" style="text;strokeColor=none;align=center;fillColor=none;html=1;verticalAlign=middle;whiteSpace=wrap;rounded=0;" parent="1" vertex="1">
                    <mxGeometry x="370" y="230" width="20" height="20" as="geometry"/>
                </mxCell>
                <mxCell id="Rd_sPL4mtn128CzlFt3K-135" value="quant_armazem" style="ellipse;whiteSpace=wrap;html=1;dashed=1;" parent="1" vertex="1">
                    <mxGeometry x="526.88" y="365" width="99.75" height="30" as="geometry"/>
                </mxCell>
            </root>
        </mxGraphModel>
    </diagram>
</mxfile>